<?xml version="1.0" encoding="UTF-8" standalone="no"?>
<!-- Created with Inkscape (http://www.inkscape.org/) -->

<svg
   width="1024"
   height="1024"
   viewBox="0 0 270.93333 270.93333"
   version="1.1"
   id="svg275"
   inkscape:version="1.2-beta (1b65182ce9, 2022-04-05)"
   sodipodi:docname="tech_temp_logo.svg"
   inkscape:export-filename="tech_temp_logo.png"
   inkscape:export-xdpi="96"
   inkscape:export-ydpi="96"
   xmlns:inkscape="http://www.inkscape.org/namespaces/inkscape"
   xmlns:sodipodi="http://sodipodi.sourceforge.net/DTD/sodipodi-0.dtd"
   xmlns="http://www.w3.org/2000/svg"
   xmlns:svg="http://www.w3.org/2000/svg">
  <sodipodi:namedview
     id="namedview277"
     pagecolor="#ffffff"
     bordercolor="#000000"
     borderopacity="0.25"
     inkscape:pageshadow="2"
     inkscape:pageopacity="0.0"
     inkscape:pagecheckerboard="0"
     inkscape:deskcolor="#d1d1d1"
     inkscape:document-units="mm"
     showgrid="false"
     inkscape:zoom="1.0670983"
     inkscape:cx="442.32101"
     inkscape:cy="730.95421"
     inkscape:window-width="1920"
     inkscape:window-height="1027"
     inkscape:window-x="-8"
     inkscape:window-y="-8"
     inkscape:window-maximized="1"
     inkscape:current-layer="layer1" />
  <defs
     id="defs272" />
  <g
     inkscape:label="Layer 1"
     inkscape:groupmode="layer"
     id="layer1">
    <rect
       style="fill:#1cff55;fill-opacity:1;stroke:#004d13;stroke-width:20.142;stroke-linecap:round;stroke-linejoin:round;stroke-dasharray:none;stroke-opacity:1;paint-order:normal"
       id="rect3528"
       width="117.1255"
       height="82.80835"
       x="-169.62508"
       y="92.824249"
       ry="0"
       transform="rotate(-90)" />
    <g
       aria-label="technical"
       id="text455"
       style="font-size:25.4px;font-family:'Karnivore Lite';-inkscape-font-specification:'Karnivore Lite';letter-spacing:5.29167px;fill:#1cff55;stroke-width:0.2;stroke-linecap:round;stroke-linejoin:round">
      <path
         d="m 67.243298,195.97603 v 2.5908 h -4.953 v 15.2654 h -2.5654 v -15.2654 h -5.1562 v -2.5654 z"
         id="path2320" />
      <path
         d="m 87.800349,211.26683 v 2.5654 h -11.1252 l -1.524,-1.5494 v -14.732 l 1.524,-1.5494 h 11.1252 v 2.5654 h -10.0838 v 5.0546 h 10.1092 v 2.5908 h -10.1092 v 5.0546 z"
         id="path2322" />
      <path
         d="m 108.40822,211.26683 v 2.5654 H 97.232217 l -1.524,-1.5494 v -14.732 l 1.524,-1.5494 h 11.176003 v 2.5654 H 98.273617 v 12.7 z"
         id="path2324" />
      <path
         d="m 128.91447,196.00143 v 17.8308 h -2.5654 v -7.62 h -7.493 v 7.62 h -2.5654 v -17.8308 h 2.5654 v 7.62 h 7.493 v -7.62 z"
         id="path2326" />
      <path
         d="m 149.64934,197.55083 v 16.2814 h -2.5654 v -15.2654 h -7.5946 v 15.2654 h -2.5654 v -17.8308 h 11.176 z"
         id="path2328" />
      <path
         d="m 160.07179,196.00143 v 17.8308 h -2.5654 v -17.8308 z"
         id="path2330" />
      <path
         d="m 180.60347,211.26683 v 2.5654 h -11.176 l -1.524,-1.5494 v -14.732 l 1.524,-1.5494 h 11.176 v 2.5654 h -10.1346 v 12.7 z"
         id="path2332" />
      <path
         d="m 191.05132,203.62143 h 7.5692 v -5.0546 h -7.5692 z m 10.1346,-6.0706 v 16.2814 h -2.5654 v -7.62 h -7.5692 v 7.62 h -2.5654 v -16.2814 l 1.524,-1.5494 h 9.6012 z"
         id="path2334" />
      <path
         d="m 216.58676,211.26683 v 2.5654 h -5.9944 l -1.524,-1.5494 v -16.2814 h 2.5654 v 15.2654 z"
         id="path2336" />
    </g>
    <g
       aria-label="specifications"
       transform="scale(1.0594209,0.94391186)"
       id="text1144"
       style="font-size:15.419px;font-family:'Karnivore Lite';-inkscape-font-specification:'Karnivore Lite';letter-spacing:3.21228px;fill:#1cff55;stroke-width:0.121409;stroke-linecap:round;stroke-linejoin:round">
      <path
         d="m 60.510636,241.06416 v 4.31732 l -0.940559,0.94056 h -6.738103 v -1.55732 h 6.121343 v -3.06838 h -5.196203 l -0.92514,-0.94056 v -4.31732 l 0.92514,-0.94056 h 6.753522 v 1.55732 h -6.121343 v 3.06838 h 5.180784 z"
         id="path2339" />
      <path
         d="m 66.868389,240.1236 h 4.594862 v -3.06838 h -4.594862 z m 6.152181,-3.68514 v 4.31732 l -0.940559,0.94056 h -5.211622 v 4.6257 H 65.31107 V 235.4979 h 6.768941 z"
         id="path2341" />
      <path
         d="m 85.468828,244.76472 v 1.55732 h -6.753521 l -0.92514,-0.94056 v -8.94302 l 0.92514,-0.94056 h 6.753521 v 1.55732 h -6.121343 v 3.06838 h 6.136762 v 1.57274 h -6.136762 v 3.06838 z"
         id="path2343" />
      <path
         d="m 97.978764,244.76472 v 1.55732 h -6.78436 l -0.92514,-0.94056 v -8.94302 l 0.92514,-0.94056 h 6.78436 v 1.55732 h -6.152181 v 7.7095 z"
         id="path2345" />
      <path
         d="m 104.32109,235.4979 v 10.82414 h -1.55732 V 235.4979 Z"
         id="path2347" />
      <path
         d="m 116.73851,241.69634 h -6.10592 v 4.6257 h -1.55732 v -9.88358 l 0.92514,-0.94056 6.72269,-0.0154 v 1.57274 h -6.09051 v 3.06838 h 6.10592 z"
         id="path2349" />
      <path
         d="m 123.11169,235.4979 v 10.82414 h -1.55732 V 235.4979 Z"
         id="path2351" />
      <path
         d="m 135.57537,244.76472 v 1.55732 h -6.78436 l -0.92514,-0.94056 v -8.94302 l 0.92514,-0.94056 h 6.78436 v 1.55732 h -6.15218 v 7.7095 z"
         id="path2353" />
      <path
         d="m 141.9177,240.1236 h 4.59486 v -3.06838 h -4.59486 z m 6.15218,-3.68514 v 9.88358 h -1.55732 v -4.6257 h -4.59486 v 4.6257 h -1.55732 v -9.88358 l 0.92514,-0.94056 h 5.82838 z"
         id="path2355" />
      <path
         d="m 160.54897,235.48248 v 1.57274 h -3.00671 v 9.26682 h -1.55732 v -9.26682 h -3.13006 v -1.55732 z"
         id="path2357" />
      <path
         d="m 166.90671,235.4979 v 10.82414 h -1.55732 V 235.4979 Z"
         id="path2359" />
      <path
         d="m 173.21821,244.76472 h 4.6257 v -7.7095 h -4.6257 z m 6.18302,-8.32626 v 8.94302 l -0.94056,0.94056 h -5.87464 l -0.92514,-0.94056 v -8.94302 l 0.92514,-0.94056 h 5.87464 z"
         id="path2361" />
      <path
         d="m 191.88032,236.43846 v 9.88358 H 190.323 v -9.26682 h -4.61028 v 9.26682 H 184.1554 V 235.4979 h 6.78436 z"
         id="path2363" />
      <path
         d="m 204.32857,241.06416 v 4.31732 l -0.94056,0.94056 h -6.7381 v -1.55732 h 6.12134 v -3.06838 h -5.1962 l -0.92514,-0.94056 v -4.31732 l 0.92514,-0.94056 h 6.75352 v 1.55732 h -6.12135 v 3.06838 h 5.18079 z"
         id="path2365" />
    </g>
    <g
       id="g2312"
       transform="matrix(0.95652174,0,0,1,4.5816207,10.583332)">
      <g
         id="g2280">
        <g
           id="g2266"
           transform="translate(0,5.2916667)">
          <rect
             style="fill:#004d13;fill-opacity:1;stroke:none;stroke-width:32.2531;stroke-linecap:round;stroke-linejoin:round;stroke-dasharray:none"
             id="rect2260"
             width="56.283863"
             height="2.4794655"
             x="106.12112"
             y="79.962753"
             ry="1.2397327" />
          <rect
             style="fill:#004d13;fill-opacity:1;stroke:none;stroke-width:24.9189;stroke-linecap:round;stroke-linejoin:round;stroke-dasharray:none"
             id="rect2262"
             width="33.596756"
             height="2.4794655"
             x="106.12112"
             y="85.069809"
             ry="1.2397327" />
        </g>
        <g
           id="g2272"
           transform="translate(-0.24794653,21.284218)">
          <rect
             style="fill:#004d13;fill-opacity:1;stroke:none;stroke-width:32.2531;stroke-linecap:round;stroke-linejoin:round;stroke-dasharray:none"
             id="rect2268"
             width="56.283863"
             height="2.4794655"
             x="106.12112"
             y="79.962753"
             ry="1.2397327" />
          <rect
             style="fill:#004d13;fill-opacity:1;stroke:none;stroke-width:24.9189;stroke-linecap:round;stroke-linejoin:round;stroke-dasharray:none"
             id="rect2270"
             width="33.596756"
             height="2.4794655"
             x="106.12112"
             y="85.069809"
             ry="1.2397327" />
        </g>
      </g>
      <g
         id="g2286"
         transform="translate(-0.7438396,38.392529)">
        <rect
           style="fill:#004d13;fill-opacity:1;stroke:none;stroke-width:32.2531;stroke-linecap:round;stroke-linejoin:round;stroke-dasharray:none"
           id="rect2282"
           width="56.283863"
           height="2.4794655"
           x="106.12112"
           y="79.962753"
           ry="1.2397327" />
        <rect
           style="fill:#004d13;fill-opacity:1;stroke:none;stroke-width:24.9189;stroke-linecap:round;stroke-linejoin:round;stroke-dasharray:none"
           id="rect2284"
           width="33.596756"
           height="2.4794655"
           x="106.12112"
           y="85.069809"
           ry="1.2397327" />
      </g>
    </g>
    <g
       id="g2318"
       transform="translate(0,1.0583333)">
      <rect
         style="fill:#004d13;fill-opacity:1;stroke:none;stroke-width:45.039;stroke-linecap:round;stroke-linejoin:round;stroke-dasharray:none"
         id="rect1530"
         width="56.283863"
         height="4.8349576"
         x="105.99715"
         y="70.788734"
         ry="2.4174788" />
      <rect
         style="fill:#004d13;fill-opacity:1;stroke:none;stroke-width:37.6942;stroke-linecap:round;stroke-linejoin:round;stroke-dasharray:none"
         id="rect2314"
         width="39.4235"
         height="4.8349576"
         x="105.99715"
         y="77.6679"
         ry="2.4174788" />
    </g>
  </g>
</svg>
